<svg width="56" height="80" viewBox="0 0 56 80" fill="none" xmlns="http://www.w3.org/2000/svg">
<g clip-path="url(#clip0_66_255)">
<path d="M27.7675 79.1068L5.14017 72.8252L0.0976562 16.2688H55.5051L50.4574 72.8165L27.7675 79.1068Z" fill="#495057"/>
<path d="M46.1363 69.2157L50.4497 20.893H27.8018V74.2986L46.1363 69.2157Z" fill="#495057"/>
<path d="M11.6594 41.8691L12.281 48.8055H27.8034V41.8691H11.6594ZM10.4102 27.8297L11.0407 34.7661H27.8034V27.8297H10.4102ZM27.8034 59.8837L27.773 59.8918L20.048 57.8059L19.5541 52.2738H12.591L13.5627 63.165L27.7715 67.1092L27.8034 67.1005V59.8837Z" fill="#EBEBEB"/>
<path d="M13.1396 0.899109H21.5406V4.41238H16.6529V7.92566H21.541V11.4387H13.1396V0.899109ZM23.221 0.899109H31.6221V3.95411H26.7343V4.56507H31.6221V11.5916H23.2212V8.38349H28.1091V7.77254H23.2208V0.899109H23.221ZM33.3025 0.899109H41.7037V3.95411H36.8158V4.56507H41.7037V11.5916H33.3025V8.38349H38.1904V7.77254H33.3028V0.899109H33.3025Z" fill="#495057"/>
<path d="M43.9011 41.8691L45.1532 27.8297H27.7776V34.7661H37.5516L36.9204 41.8691H27.7776V48.8055H36.319L35.5137 57.8015L27.7773 59.8896V67.106L41.9975 63.165L42.1017 61.9931L43.7319 43.7317L43.9011 41.8691Z" fill="white"/>
</g>
<defs>
<clipPath id="clip0_66_255">
<rect width="55.6054" height="78.4058" fill="white" transform="translate(0 0.89917)"/>
</clipPath>
</defs>
</svg>
