<svg width="52" height="74" viewBox="0 0 52 74" fill="none" xmlns="http://www.w3.org/2000/svg">
<g clip-path="url(#clip0_101_4)">
<path d="M51.91 14.7799L47.1891 67.5002L25.9687 73.3648L4.80668 67.5084L0.0908203 14.7799H51.91Z" fill="#495057"/>
<path d="M26 68.8821L43.1471 64.1431L47.1814 19.0912H26V68.8821Z" fill="#495057"/>
<path d="M16.8231 32.0252H26.0003V25.5582H9.7334L9.88868 27.2932L11.4831 45.1143H26.0003V38.6475H17.416L16.8231 32.0252Z" fill="white"/>
<path d="M18.2856 48.3479H11.7734L12.6823 58.502L25.9709 62.1794L26.0007 62.1712V55.4428L25.9723 55.4504L18.7474 53.5056L18.2856 48.3479Z" fill="white"/>
<path d="M4.91211 0.4505H8.20883V3.69747H11.2245V0.4505H14.5214V10.2831H11.2247V6.99057H8.20897V10.2831H4.91225V0.4505H4.91211Z" fill="#495057"/>
<path d="M18.8564 3.71114H15.9541V0.4505H25.057V3.71114H22.1534V10.2831H18.8565V3.71114H18.8564Z" fill="#495057"/>
<path d="M26.502 0.4505H29.9395L32.0541 3.90539L34.1665 0.4505H37.6054V10.2831H34.3222V5.40953L32.0541 8.90557H31.9974L29.7277 5.40953V10.2831H26.502V0.4505Z" fill="#495057"/>
<path d="M39.2461 0.4505H42.5438V7.03301H47.1799V10.2831H39.2461V0.4505Z" fill="#495057"/>
<path d="M25.9775 45.1143H33.9658L33.2128 53.5015L25.9775 55.4482V62.1763L39.2767 58.502L39.3743 57.4094L40.8987 40.384L41.057 38.6475H25.9775V45.1143Z" fill="white"/>
<path d="M25.9775 32.0094V32.0252H41.6473L41.7774 30.5716L42.073 27.2932L42.2281 25.5582H25.9775V32.0094Z" fill="white"/>
</g>
<defs>
<clipPath id="clip0_101_4">
<rect width="52" height="73.099" fill="white" transform="translate(0 0.4505)"/>
</clipPath>
</defs>
</svg>
